# xmcd
#
# Track frame offsets: 
#        150
#        10900
#        16859
#        27983
#        45906
#        54334
#        61745
#        74285
#        84986
#        92387
#        98264
#        105400
#
# Disc length: 1522 seconds
#
# Revision: 0
# Processed by: cddbd v1.5.2PL0 Copyright (c) Steve Scherf et al.
# Submitted via: ExactAudioCopy v0.95b4
#
DISCID=7405f00c
DTITLE=Buck Owens - From The Streets Of Bakersfield
DYEAR=1900
DGENRE=Country
TTITLE0=After The Dance
TTITLE1=Blue Love
TTITLE2=Down On The Corner Of Love
TTITLE3=Leavin' Dirty Tracks
TTITLE4=Honeysuckle
TTITLE5=Please Don't Take Her From Me
TTITLE6=The House Down The Block
TTITLE7=It Don't Show On Me
TTITLE8=That Ain't Right Woman
TTITLE9=Three Dimension Love
TTITLE10=You're For Me
TTITLE11=Why Don't Mommy Stay With Dad and Me
EXTD=
EXTT0=
EXTT1=
EXTT2=
EXTT3=
EXTT4=
EXTT5=
EXTT6=
EXTT7=
EXTT8=
EXTT9=
EXTT10=
EXTT11=
PLAYORDER=
